<?xml version="1.0" encoding="UTF-8"?>
<svg version="1.1" xmlns="http://www.w3.org/2000/svg" width="2395" height="1370">
<path d="M0 0 C790.35 0 1580.7 0 2395 0 C2395 452.1 2395 904.2 2395 1370 C1604.65 1370 814.3 1370 0 1370 C0 917.9 0 465.8 0 0 Z " fill="#CC0000" transform="translate(0,0)"/>
<path d="M0 0 C0.96969727 0.10183594 1.93939453 0.20367187 2.93847656 0.30859375 C50.3205805 5.29456376 95.60797225 20.40449916 134.14453125 48.96875 C136.40405706 50.57607342 138.47923438 51.87694704 141 53 C141.78761719 52.443125 142.57523438 51.88625 143.38671875 51.3125 C165.72079363 35.61481612 189.36255166 23.40422993 215 14 C215.73202637 13.73106934 216.46405273 13.46213867 217.21826172 13.18505859 C233.8657813 7.21676772 251.78164284 3.71544909 269.25 1.1875 C270.02110107 1.07583496 270.79220215 0.96416992 271.58666992 0.84912109 C285.96575769 -1.06158952 300.37926539 -1.18640875 314.8581543 -1.18530273 C318.03252788 -1.18747945 321.2065473 -1.20567514 324.38085938 -1.22460938 C390.81046467 -1.40957376 457.46862312 17.05046493 505.66796875 64.56640625 C508.40605307 67.33811952 510.93822239 70.20636206 513.375 73.25 C515.63438027 76.06371215 517.89074369 78.87096619 520.22265625 81.625 C557.22968866 125.48518656 576.07494184 186.5387507 581 243 C581.08942871 243.99 581.17885742 244.98 581.27099609 246 C581.97360181 253.99229768 582.49990137 261.99289045 583 270 C583.04264413 270.6809893 583.08528825 271.36197861 583.12922463 272.06360395 C584.68902792 297.20148163 585.28960085 322.24532923 585.23213124 347.42829812 C585.22328387 352.32131818 585.2264315 357.214335 585.22793579 362.10736084 C585.22897156 370.53393283 585.22283443 378.96047323 585.21146011 387.38703728 C585.19502683 399.56960008 585.18997916 411.75214802 585.18748413 423.9347207 C585.18313456 443.71242982 585.16990084 463.4901222 585.15087891 483.26782227 C585.13244848 502.45076414 585.1183273 521.63370142 585.10986328 540.81665039 C585.10907511 542.59795891 585.10907511 542.59795891 585.10827102 544.41525345 C585.10566046 550.37431125 585.10313316 556.33336909 585.10064721 562.29242694 C585.08000021 611.52829951 585.0431774 660.76414103 585 710 C528.57 710 472.14 710 414 710 C413.9906543 697.82786621 413.98130859 685.65573242 413.97167969 673.11474609 C413.93890158 634.07106008 413.88656722 595.02742187 413.82207905 555.98377588 C413.81206281 549.90878051 413.80221847 543.83378488 413.79248047 537.75878906 C413.7905391 536.54947816 413.78859772 535.34016726 413.78659752 534.09421058 C413.75566224 514.56940404 413.73862061 495.04460923 413.72680578 475.51978283 C413.71435015 455.45284453 413.68674992 435.3859673 413.64538693 415.3190676 C413.62037721 402.95856967 413.60687351 390.59817315 413.60857043 378.23764957 C413.60860042 369.7363643 413.59378587 361.23518154 413.56783572 352.73393629 C413.55333448 347.8452123 413.54486001 342.95669843 413.55419731 338.06795692 C413.62648487 295.28284437 412.547811 246.22202589 381.296875 213.30078125 C380.53890625 212.54152344 379.7809375 211.78226563 379 211 C378.24203125 210.23042969 377.4840625 209.46085938 376.703125 208.66796875 C359.9926625 192.64012318 339.72725948 187.12457721 317.03076172 187.4230957 C308.15525948 187.72277055 300.34021325 188.80431528 292 192 C290.95328125 192.36222656 289.9065625 192.72445312 288.828125 193.09765625 C281.30099344 195.91555448 275.23684028 199.98033429 269 205 C268.24074219 205.58265625 267.48148438 206.1653125 266.69921875 206.765625 C240.65098295 228.04837538 233.2636282 263.65452403 229.87786865 295.2940979 C229.74646357 296.52104071 229.74646357 296.52104071 229.61240384 297.77277024 C227.66374016 316.42566349 227.4138401 334.98230053 227.45119452 353.72043157 C227.45625577 358.52829498 227.43791422 363.33608637 227.42277527 368.1439209 C227.39973729 376.42427791 227.39070234 384.70454806 227.39188385 392.98493576 C227.39357066 404.95615753 227.37304219 416.92726527 227.34752855 428.89845629 C227.30669261 448.33285201 227.28319751 467.76722687 227.27099609 487.20166016 C227.25912341 506.05194095 227.23879735 524.90218242 227.20751953 543.75244141 C227.20557402 544.9311537 227.2036285 546.10986599 227.20162404 547.32429683 C227.18633825 556.54607614 227.17057076 565.76785461 227.1546514 574.98963284 C227.07708559 619.99308213 227.04143589 664.9964749 227 710 C170.57 710 114.14 710 56 710 C55.98018066 697.42656494 55.96036133 684.85312988 55.93994141 671.89868164 C55.87509119 631.6377444 55.80055575 591.37683028 55.71994839 551.11592162 C55.70742998 544.85893813 55.69499714 538.60195447 55.68261719 532.3449707 C55.6789182 530.47654416 55.6789182 530.47654416 55.67514448 528.57037162 C55.63545443 508.41923401 55.60269049 488.26809082 55.57250018 468.11693699 C55.54135202 447.42970115 55.50272827 426.74248893 55.45720994 406.05527967 C55.42937218 393.29708331 55.40731876 380.53890417 55.39273749 367.78068566 C55.3821701 359.02395446 55.364321 350.26725667 55.34083296 341.51055069 C55.32750761 336.46349617 55.31730918 331.41648833 55.31578636 326.36941528 C55.3143177 321.73810183 55.30359427 317.10690054 55.28586559 312.47562163 C55.2810615 310.81046442 55.27949812 309.14529358 55.28172119 307.48013092 C55.29875114 292.20334208 53.97472993 277.3299997 50.375 262.4375 C49.9891272 260.84107666 49.9891272 260.84107666 49.59545898 259.21240234 C47.24513558 250.0375957 43.81774694 242.12053831 39 234 C38.13375 232.50146484 38.13375 232.50146484 37.25 230.97265625 C33.11132306 224.14192324 28.19186687 218.05278557 23 212 C22.28972656 211.14277344 21.57945312 210.28554688 20.84765625 209.40234375 C10.09491891 196.8218355 -4.18178443 187.84823839 -20 183 C-20.65742187 182.79117188 -21.31484375 182.58234375 -21.9921875 182.3671875 C-40.19783289 177.60803539 -58.18139265 182.78749397 -74.09960938 191.84960938 C-99.64322104 207.312289 -115.0223805 232.98233563 -122.15625 261.44921875 C-123.21851716 265.94436867 -124.1373005 270.46273062 -125 275 C-125.14034668 275.73331543 -125.28069336 276.46663086 -125.42529297 277.22216797 C-129.89969747 301.09092887 -130.30895346 324.68671676 -130.31667423 348.88487935 C-130.3204059 353.74212327 -130.33557952 358.59933408 -130.34928894 363.45655823 C-130.37144856 371.8501627 -130.38652938 380.24375522 -130.39665604 388.63738251 C-130.41130752 400.77281335 -130.43686202 412.90820248 -130.46498732 425.0436087 C-130.51033845 444.73755746 -130.54700126 464.43151227 -130.578125 484.12548828 C-130.60835857 503.24431417 -130.64273076 522.36312531 -130.68261719 541.48193359 C-130.68507874 542.66251637 -130.68754028 543.84309914 -130.69007643 545.05945715 C-130.70245196 550.9827209 -130.71490831 556.90598446 -130.72740483 562.82924795 C-130.83079756 611.88614782 -130.91844398 660.94305802 -131 710 C-187.43 710 -243.86 710 -302 710 C-302.04419867 656.487316 -302.0810853 602.97464939 -302.10213066 549.46195232 C-302.10463168 543.12559513 -302.10722037 536.78923799 -302.10986328 530.45288086 C-302.1103879 529.19157507 -302.11091252 527.93026928 -302.11145304 526.6307421 C-302.1201248 506.28294034 -302.13587673 485.93515004 -302.15430559 465.58735505 C-302.17309495 444.6649975 -302.1841357 423.74264589 -302.18817699 402.82028025 C-302.19090343 389.93928835 -302.19947298 377.05832883 -302.21583293 364.17734691 C-302.22651174 355.31069101 -302.22957637 346.44405153 -302.22700275 337.57738969 C-302.22573815 332.48328857 -302.22749324 327.38924348 -302.23841095 322.29515266 C-302.30309083 290.52680316 -301.93269236 258.57011013 -298 227 C-297.88462891 226.05350586 -297.76925781 225.10701172 -297.65039062 224.13183594 C-294.42552439 198.60300905 -288.53783748 172.94161397 -279 149 C-278.66919434 148.16533203 -278.33838867 147.33066406 -277.99755859 146.47070312 C-255.34061538 90.03412544 -215.99222062 44.86610796 -159.73046875 20.3828125 C-142.28759453 13.01810943 -124.48088214 8.00430181 -106 4 C-105.27329102 3.83661133 -104.54658203 3.67322266 -103.79785156 3.50488281 C-99.22444453 2.4837257 -94.63501087 1.67701313 -90 1 C-89.08138184 0.86464844 -88.16276367 0.72929687 -87.21630859 0.58984375 C-58.3994937 -3.46744682 -28.88950731 -3.2946851 0 0 Z " fill="#FEFEFE" transform="translate(887,307)"/>
<path d="M0 0 C3.26817307 0.01074655 6.53579815 0.00001269 9.80395508 -0.01269531 C38.37283883 -0.03270153 67.29702418 2.91333462 94.7043457 11.26074219 C95.68387207 11.55013672 96.66339844 11.83953125 97.67260742 12.13769531 C127.69920828 21.10745738 156.00343214 34.47046713 179.7043457 55.26074219 C180.56415039 56.01097656 181.42395508 56.76121094 182.30981445 57.53417969 C184.80468263 59.74596902 187.26233979 61.99082394 189.7043457 64.26074219 C190.36950195 64.87175781 191.0346582 65.48277344 191.7199707 66.11230469 C242.2800731 114.4115895 262.9738885 207.36388938 265.00341657 274.75857127 C265.26140731 286.04663574 265.21466439 297.33787208 265.16860819 308.62799513 C265.15103629 314.05282158 265.15720047 319.47763411 265.16021729 324.90248108 C265.16229621 334.26064251 265.14994202 343.61869082 265.12726593 352.97682381 C265.09450341 366.5064379 265.08431437 380.03599832 265.07931396 393.56564777 C265.07059894 415.5262993 265.04408733 437.48689077 265.00610352 459.44750977 C264.96928452 480.75708007 264.94102141 502.06662706 264.92407227 523.3762207 C264.92302137 524.69377686 264.92197048 526.01133303 264.92088774 527.36881513 C264.9156669 533.97981173 264.91061223 540.59080844 264.90564013 547.20180523 C264.86429643 601.88817092 264.79062318 656.57442531 264.7043457 711.26074219 C208.2743457 711.26074219 151.8443457 711.26074219 93.7043457 711.26074219 C93.7043457 649.88074219 93.7043457 588.50074219 93.7043457 525.26074219 C31.9943457 525.26074219 -29.7156543 525.26074219 -93.2956543 525.26074219 C-93.2956543 586.64074219 -93.2956543 648.02074219 -93.2956543 711.26074219 C-148.7356543 711.26074219 -204.1756543 711.26074219 -261.2956543 711.26074219 C-261.36194285 655.4549629 -261.41727648 599.64922111 -261.44885029 543.84341364 C-261.45260185 537.23667348 -261.45648488 530.6299334 -261.46044922 524.02319336 C-261.46123615 522.7080565 -261.46202308 521.39291964 -261.46283386 520.03793015 C-261.4758442 498.81714031 -261.49947362 477.59637516 -261.52711269 456.3755999 C-261.55528914 434.55827335 -261.57185626 412.74095963 -261.57791978 390.92361563 C-261.582011 377.48983703 -261.59487397 364.05612824 -261.6194037 350.62237116 C-261.63541248 341.37726511 -261.64002092 332.1321945 -261.63615843 322.88707564 C-261.6342601 317.57422015 -261.63691128 312.26148556 -261.65327072 306.94865227 C-261.71085892 287.22632584 -261.54447012 267.61441353 -259.92280579 247.94877625 C-259.8618006 247.20607099 -259.80079541 246.46336573 -259.73794159 245.69815425 C-258.47294017 230.73552108 -256.14474194 216.004227 -253.2956543 201.26074219 C-253.10777344 200.25479004 -252.91989258 199.24883789 -252.72631836 198.21240234 C-248.25573692 174.5406338 -240.96736173 151.32024831 -231.2956543 129.26074219 C-230.78615234 128.08342529 -230.78615234 128.08342529 -230.26635742 126.88232422 C-207.29433933 74.33971487 -163.44399128 37.812852 -110.75317383 17.17919922 C-89.45780184 9.2204083 -66.8508919 4.66376044 -44.2956543 2.26074219 C-43.56307404 2.17922913 -42.83049377 2.09771606 -42.07571411 2.01373291 C-28.03161056 0.4764187 -14.12419691 -0.05502796 0 0 Z " fill="#FEFEFE" transform="translate(1759.295654296875,305.7392578125)"/>
<path d="M0 0 C54.45 0 108.9 0 165 0 C165 234.96 165 469.92 165 712 C110.55 712 56.1 712 0 712 C0 477.04 0 242.08 0 0 Z " fill="#FEFEFE" transform="translate(393,305)"/>
<path d="M0 0 C0.95398682 -0.0103125 1.90797363 -0.020625 2.89086914 -0.03125 C22.48437205 0.21166558 39.5620118 10.21080162 53.375 23.4375 C53.97957031 23.97890625 54.58414062 24.5203125 55.20703125 25.078125 C70.09704928 38.88713469 80.81838613 60.15538574 86.375 79.4375 C86.72949219 80.65308594 87.08398438 81.86867188 87.44921875 83.12109375 C95.44563545 112.49261791 93.375 143.3541723 93.375 173.4375 C31.335 173.4375 -30.705 173.4375 -94.625 173.4375 C-94.625 152.50853768 -94.60555366 132.18478811 -92.625 111.4375 C-92.55555176 110.67501953 -92.48610352 109.91253906 -92.41455078 109.12695312 C-89.7450629 81.05997116 -80.19854547 52.94178243 -61.625 31.4375 C-61.02300781 30.69113281 -60.42101563 29.94476562 -59.80078125 29.17578125 C-50.2412633 17.69233516 -38.17957104 10.31667609 -24.625 4.4375 C-23.60277344 3.98117187 -22.58054687 3.52484375 -21.52734375 3.0546875 C-14.42343862 0.37785368 -7.50975584 0.06717456 0 0 Z " fill="#CA161D" transform="translate(1759.625,489.5625)"/>
</svg>
